HIERARCHY
ROOT mixamorig:Hips
{
	OFFSET -0.000007 99.791939 0.000048
	CHANNELS 6 Xposition Yposition Zposition Xrotation Yrotation Zrotation
	JOINT mixamorig:Spine
	{
		OFFSET -0.000008 9.923462 -1.227335
		CHANNELS 3 Xrotation Yrotation Zrotation
		JOINT mixamorig:Spine1
		{
			OFFSET -0.001162 11.645439 -1.422341
			CHANNELS 3 Xrotation Yrotation Zrotation
			JOINT mixamorig:Spine2
			{
				OFFSET -0.001082 13.360199 -1.626459
				CHANNELS 3 Xrotation Yrotation Zrotation
				JOINT mixamorig:Neck
				{
					OFFSET -0.001294 15.032486 0.792904
					CHANNELS 3 Xrotation Yrotation Zrotation
					JOINT mixamorig:Head
					{
						OFFSET -0.000902 10.321838 3.142429
						CHANNELS 3 Xrotation Yrotation Zrotation
						JOINT mixamorig:HeadTop_End
						{
							OFFSET -0.001464 18.474670 6.636400
							CHANNELS 3 Xrotation Yrotation Zrotation
							End Site
							{
								OFFSET -0.001724 19.630463 0.000000
							}
						}
					}
				}
				JOINT mixamorig:LeftShoulder
				{
					OFFSET 6.105025 9.110947 0.705547
					CHANNELS 3 Xrotation Yrotation Zrotation
					JOINT mixamorig:LeftArm
					{
						OFFSET 12.655060 -0.264816 -2.600928
						CHANNELS 3 Xrotation Yrotation Zrotation
						JOINT mixamorig:LeftForeArm
						{
							OFFSET 27.404680 0.002457 -0.000007
							CHANNELS 3 Xrotation Yrotation Zrotation
							JOINT mixamorig:LeftHand
							{
								OFFSET 27.614456 0.002457 0.000007
								CHANNELS 3 Xrotation Yrotation Zrotation
								JOINT mixamorig:LeftHandThumb1
								{
									OFFSET 3.789009 -2.166824 3.002973
									CHANNELS 3 Xrotation Yrotation Zrotation
									JOINT mixamorig:LeftHandThumb2
									{
										OFFSET 3.675636 -2.121704 2.122010
										CHANNELS 3 Xrotation Yrotation Zrotation
										JOINT mixamorig:LeftHandThumb3
										{
											OFFSET 3.394531 -1.959473 1.959746
											CHANNELS 3 Xrotation Yrotation Zrotation
											JOINT mixamorig:LeftHandThumb4
											{
												OFFSET 2.679504 -1.546753 1.546951
												CHANNELS 3 Xrotation Yrotation Zrotation
												End Site
												{
													OFFSET 2.400604 -1.530380 1.964751
												}
											}
										}
									}
								}
								JOINT mixamorig:LeftHandIndex1
								{
									OFFSET 12.266647 -0.230743 2.822040
									CHANNELS 3 Xrotation Yrotation Zrotation
									JOINT mixamorig:LeftHandIndex2
									{
										OFFSET 3.891968 0.000336 0.000037
										CHANNELS 3 Xrotation Yrotation Zrotation
										JOINT mixamorig:LeftHandIndex3
										{
											OFFSET 3.415161 0.000305 -0.000010
											CHANNELS 3 Xrotation Yrotation Zrotation
											JOINT mixamorig:LeftHandIndex4
											{
												OFFSET 3.077995 0.000275 -0.000009
												CHANNELS 3 Xrotation Yrotation Zrotation
												End Site
												{
													OFFSET 3.077988 0.000259 0.000131
												}
											}
										}
									}
								}
								JOINT mixamorig:LeftHandMiddle1
								{
									OFFSET 12.775536 0.001129 0.000014
									CHANNELS 3 Xrotation Yrotation Zrotation
									JOINT mixamorig:LeftHandMiddle2
									{
										OFFSET 3.613968 0.000320 0.000000
										CHANNELS 3 Xrotation Yrotation Zrotation
										JOINT mixamorig:LeftHandMiddle3
										{
											OFFSET 3.459763 0.000305 -0.000028
											CHANNELS 3 Xrotation Yrotation Zrotation
											JOINT mixamorig:LeftHandMiddle4
											{
												OFFSET 3.680191 0.000320 0.000031
												CHANNELS 3 Xrotation Yrotation Zrotation
												End Site
												{
													OFFSET 3.680191 0.000351 -0.004814
												}
											}
										}
									}
								}
								JOINT mixamorig:LeftHandRing1
								{
									OFFSET 12.147018 0.011063 -2.216636
									CHANNELS 3 Xrotation Yrotation Zrotation
									JOINT mixamorig:LeftHandRing2
									{
										OFFSET 3.601181 0.000320 0.000033
										CHANNELS 3 Xrotation Yrotation Zrotation
										JOINT mixamorig:LeftHandRing3
										{
											OFFSET 3.307320 0.000305 -0.000023
											CHANNELS 3 Xrotation Yrotation Zrotation
											JOINT mixamorig:LeftHandRing4
											{
												OFFSET 3.660118 0.000320 0.000000
												CHANNELS 3 Xrotation Yrotation Zrotation
												End Site
												{
													OFFSET 3.660103 0.000229 0.005616
												}
											}
										}
									}
								}
								JOINT mixamorig:LeftHandPinky1
								{
									OFFSET 10.908218 -0.225174 -4.725837
									CHANNELS 3 Xrotation Yrotation Zrotation
									JOINT mixamorig:LeftHandPinky2
									{
										OFFSET 4.136658 0.000351 0.001166
										CHANNELS 3 Xrotation Yrotation Zrotation
										JOINT mixamorig:LeftHandPinky3
										{
											OFFSET 2.594826 0.000244 -0.001180
											CHANNELS 3 Xrotation Yrotation Zrotation
											JOINT mixamorig:LeftHandPinky4
											{
												OFFSET 2.923874 0.000244 0.000018
												CHANNELS 3 Xrotation Yrotation Zrotation
												End Site
												{
													OFFSET 2.923851 0.000275 -0.003346
												}
											}
										}
									}
								}
							}
						}
					}
				}
				JOINT mixamorig:RightShoulder
				{
					OFFSET -6.106495 9.109970 0.705565
					CHANNELS 3 Xrotation Yrotation Zrotation
					JOINT mixamorig:RightArm
					{
						OFFSET -12.655020 -0.267136 -2.600890
						CHANNELS 3 Xrotation Yrotation Zrotation
						JOINT mixamorig:RightForeArm
						{
							OFFSET -27.404675 -0.002365 0.000019
							CHANNELS 3 Xrotation Yrotation Zrotation
							JOINT mixamorig:RightHand
							{
								OFFSET -27.614464 -0.002396 0.000031
								CHANNELS 3 Xrotation Yrotation Zrotation
								JOINT mixamorig:RightHandThumb1
								{
									OFFSET -3.788620 -2.167480 3.002977
									CHANNELS 3 Xrotation Yrotation Zrotation
									JOINT mixamorig:RightHandThumb2
									{
										OFFSET -3.675247 -2.122314 2.122009
										CHANNELS 3 Xrotation Yrotation Zrotation
										JOINT mixamorig:RightHandThumb3
										{
											OFFSET -3.394188 -1.960129 1.959755
											CHANNELS 3 Xrotation Yrotation Zrotation
											JOINT mixamorig:RightHandThumb4
											{
												OFFSET -2.679230 -1.547195 1.546953
												CHANNELS 3 Xrotation Yrotation Zrotation
												End Site
												{
													OFFSET -2.398781 -1.531693 1.965949
												}
											}
										}
									}
								}
								JOINT mixamorig:RightHandIndex1
								{
									OFFSET -12.266594 -0.232895 2.822051
									CHANNELS 3 Xrotation Yrotation Zrotation
									JOINT mixamorig:RightHandIndex2
									{
										OFFSET -3.891968 -0.000336 0.000040
										CHANNELS 3 Xrotation Yrotation Zrotation
										JOINT mixamorig:RightHandIndex3
										{
											OFFSET -3.415161 -0.000305 -0.000006
											CHANNELS 3 Xrotation Yrotation Zrotation
											JOINT mixamorig:RightHandIndex4
											{
												OFFSET -3.077988 -0.000275 0.000006
												CHANNELS 3 Xrotation Yrotation Zrotation
												End Site
												{
													OFFSET -3.077980 0.000229 -0.008454
												}
											}
										}
									}
								}
								JOINT mixamorig:RightHandMiddle1
								{
									OFFSET -12.775528 -0.001114 0.000025
									CHANNELS 3 Xrotation Yrotation Zrotation
									JOINT mixamorig:RightHandMiddle2
									{
										OFFSET -3.613968 -0.000320 0.000005
										CHANNELS 3 Xrotation Yrotation Zrotation
										JOINT mixamorig:RightHandMiddle3
										{
											OFFSET -3.459763 -0.000305 -0.000025
											CHANNELS 3 Xrotation Yrotation Zrotation
											JOINT mixamorig:RightHandMiddle4
											{
												OFFSET -3.680191 -0.000320 0.000034
												CHANNELS 3 Xrotation Yrotation Zrotation
												End Site
												{
													OFFSET -3.680168 -0.000031 0.012581
												}
											}
										}
									}
								}
								JOINT mixamorig:RightHandRing1
								{
									OFFSET -12.147003 0.008942 -2.216624
									CHANNELS 3 Xrotation Yrotation Zrotation
									JOINT mixamorig:RightHandRing2
									{
										OFFSET -3.601196 -0.000320 0.000037
										CHANNELS 3 Xrotation Yrotation Zrotation
										JOINT mixamorig:RightHandRing3
										{
											OFFSET -3.307312 -0.000290 -0.000019
											CHANNELS 3 Xrotation Yrotation Zrotation
											JOINT mixamorig:RightHandRing4
											{
												OFFSET -3.660118 -0.000320 0.000002
												CHANNELS 3 Xrotation Yrotation Zrotation
												End Site
												{
													OFFSET -3.660110 0.000107 0.002180
												}
											}
										}
									}
								}
								JOINT mixamorig:RightHandPinky1
								{
									OFFSET -10.908173 -0.227081 -4.725826
									CHANNELS 3 Xrotation Yrotation Zrotation
									JOINT mixamorig:RightHandPinky2
									{
										OFFSET -4.136642 -0.000366 0.000029
										CHANNELS 3 Xrotation Yrotation Zrotation
										JOINT mixamorig:RightHandPinky3
										{
											OFFSET -2.594841 -0.000229 -0.000036
											CHANNELS 3 Xrotation Yrotation Zrotation
											JOINT mixamorig:RightHandPinky4
											{
												OFFSET -2.923874 -0.000259 0.000021
												CHANNELS 3 Xrotation Yrotation Zrotation
												End Site
												{
													OFFSET -2.923820 0.000336 -0.012876
												}
											}
										}
									}
								}
							}
						}
					}
				}
			}
		}
	}
	JOINT mixamorig:LeftUpLeg
	{
		OFFSET 9.124458 -6.656387 -0.055378
		CHANNELS 3 Xrotation Yrotation Zrotation
		JOINT mixamorig:LeftLeg
		{
			OFFSET 0.244681 -40.595421 -0.515619
			CHANNELS 3 Xrotation Yrotation Zrotation
			JOINT mixamorig:LeftFoot
			{
				OFFSET -0.244669 -42.047928 -2.059156
				CHANNELS 3 Xrotation Yrotation Zrotation
				JOINT mixamorig:LeftToeBase
				{
					OFFSET 0.373535 -7.208548 13.966561
					CHANNELS 3 Xrotation Yrotation Zrotation
					JOINT mixamorig:LeftToe_End
					{
						OFFSET -0.142059 -0.175224 9.997455
						CHANNELS 3 Xrotation Yrotation Zrotation
						End Site
						{
							OFFSET -0.142060 -0.175223 9.997459
						}
					}
				}
			}
		}
	}
	JOINT mixamorig:RightUpLeg
	{
		OFFSET -9.124448 -6.656403 -0.055378
		CHANNELS 3 Xrotation Yrotation Zrotation
		JOINT mixamorig:RightLeg
		{
			OFFSET -0.244680 -40.595459 -0.514290
			CHANNELS 3 Xrotation Yrotation Zrotation
			JOINT mixamorig:RightFoot
			{
				OFFSET 0.244670 -42.047859 -2.060535
				CHANNELS 3 Xrotation Yrotation Zrotation
				JOINT mixamorig:RightToeBase
				{
					OFFSET -0.373535 -7.208539 13.966558
					CHANNELS 3 Xrotation Yrotation Zrotation
					JOINT mixamorig:RightToe_End
					{
						OFFSET 0.141798 -0.175009 9.997463
						CHANNELS 3 Xrotation Yrotation Zrotation
						End Site
						{
							OFFSET 0.141798 -0.175009 9.997467
						}
					}
				}
			}
		}
	}
}
MOTION
Frames: 5
Frame Time: 0.033333
-61.880466 78.264603 22.186556 12.794444 30.205224 -11.847848 19.773761 4.236698 2.606265 0.768541 0.936445 0.695992 0.767952 0.945964 0.678945 -5.578329 -2.872096 1.300402 -43.393312 -25.377344 -7.665252 0.000000 0.000000 0.000000 0.139528 6.589883 -4.637705 17.653848 -16.477164 -54.149938 -62.133562 -62.368964 -59.504321 -10.118274 -17.740853 -10.417746 26.348416 -5.201718 31.594925 23.415062 6.922416 -21.726664 -6.482480 -26.288408 21.746875 0.000004 -0.000001 0.000003 2.157425 6.831253 -49.789904 6.885449 5.759253 -100.207112 6.361165 5.829575 -95.017159 0.000005 -0.000003 -0.000001 8.087762 6.599874 -55.180849 6.257700 5.837507 -93.997562 6.461878 5.819737 -96.007844 -0.000001 -0.000002 -0.000001 4.119535 7.953141 -72.047103 6.068766 5.847062 -92.145693 6.273443 5.836804 -94.155872 0.000001 -0.000001 0.000001 6.184429 8.175410 -94.164635 5.733486 5.834356 -89.106873 5.760477 5.876762 -89.112693 0.000000 0.000001 -0.000002 1.798597 -7.792327 17.690270 13.669951 4.505059 67.234039 -261.689518 125.595349 260.375281 -2.084062 -9.986111 27.323062 4.721003 5.711321 -2.166117 38.285273 -16.614814 8.884878 -20.673135 9.218927 -16.398564 0.000001 0.000002 0.000002 1.675683 -5.805331 49.120402 5.480506 -4.583012 100.187995 5.063691 -4.638990 95.007563 0.000001 -0.000001 -0.000002 4.163027 -9.714205 49.209563 4.981303 -4.645460 93.989898 5.143579 -4.631357 95.996396 0.000001 -0.000001 -0.000001 9.724993 -8.880768 71.664694 4.831005 -4.653008 92.141294 4.993651 -4.645034 94.147949 -0.000001 0.000002 -0.000000 4.809769 -6.913010 93.388787 4.584612 -4.655824 89.112057 4.585856 -4.657153 89.112262 0.000000 0.000001 -0.000000 -72.843858 0.265384 50.641229 67.290839 5.460250 -14.091709 14.654256 -0.382467 -3.538134 -18.577848 -19.697871 0.094723 0.000000 0.000000 0.000000 -51.497588 -4.118669 -4.615103 81.336297 -7.444783 7.132917 -38.693571 -2.870947 5.312043 0.000048 -2.593960 0.000038 -0.000000 0.000002 -0.000000 
-61.847889 78.197990 22.234932 12.635855 30.279656 -11.776314 19.825083 4.298376 2.673429 0.778620 0.946546 0.713953 0.778599 0.952020 0.697927 -5.620432 -2.873849 1.317688 -43.848199 -25.317168 -7.801892 -0.000001 0.000001 0.000000 0.130808 6.635365 -4.572038 17.732100 -16.545869 -54.179250 -62.120120 -62.518258 -59.523213 -10.027501 -17.841526 -10.119853 26.372434 -5.332132 31.660990 23.414636 6.921979 -21.726297 -6.487054 -26.290797 21.724721 -0.000002 -0.000002 0.000004 2.161497 6.836041 -49.842756 6.885313 5.759271 -100.205801 6.361083 5.829586 -95.016346 -0.000001 0.000000 -0.000000 8.089347 6.599140 -55.194298 6.261280 5.837248 -94.032881 6.465472 5.819354 -96.043183 0.000004 0.000002 0.000005 4.125071 7.955182 -72.096595 6.065036 5.847212 -92.109056 6.269714 5.837069 -94.119269 -0.000001 -0.000001 0.000001 6.201032 8.173621 -94.425200 5.738811 5.834456 -89.159186 5.765818 5.876860 -89.164998 0.000000 -0.000001 -0.000001 1.799368 -7.819794 17.680090 13.787438 4.462038 67.147904 -262.074850 125.788944 260.827357 -2.024925 -10.104776 26.739923 4.754700 5.813643 -2.196484 38.276595 -16.601688 8.885959 -20.664910 9.212231 -16.385303 0.000001 -0.000000 0.000002 1.678862 -5.809467 49.173209 5.480404 -4.583039 100.186670 5.063618 -4.638999 95.006791 -0.000001 -0.000001 0.000002 4.165459 -9.714152 49.223138 4.984149 -4.645268 94.025170 5.146435 -4.631069 96.031708 -0.000001 0.000000 0.000002 9.731317 -8.877241 71.714261 4.828046 -4.653112 92.104746 4.990690 -4.645247 94.111414 0.000002 0.000001 0.000000 4.820937 -6.911869 93.648628 4.588854 -4.655884 89.164233 4.590084 -4.657211 89.164459 0.000001 0.000000 -0.000000 -72.895153 0.135748 50.598612 67.569518 5.711060 -13.848242 15.007416 -0.415736 -3.698809 -19.039403 -20.112836 0.079063 -0.000001 0.000001 0.000000 -51.348478 -4.027252 -4.482764 81.486226 -7.546900 7.072351 -38.835551 -2.912966 5.412622 0.000038 -2.927693 0.000035 -0.000000 0.000000 -0.000000 
-61.830742 78.142555 22.303755 12.544018 30.366287 -11.700002 19.852887 4.341228 2.715346 0.777937 0.952623 0.732374 0.777711 0.955104 0.717306 -5.659147 -2.873113 1.316020 -44.344238 -25.231380 -8.098256 0.000001 0.000000 -0.000000 0.122428 6.677872 -4.510649 17.805104 -16.610139 -54.206912 -62.106569 -62.658947 -59.539920 -9.943301 -17.931094 -9.841668 26.459579 -4.882776 31.581664 23.414150 6.921414 -21.725915 -6.489246 -26.289058 21.679372 0.000002 0.000000 0.000003 2.159418 6.835752 -49.817972 6.886746 5.759011 -100.220178 6.361003 5.829601 -95.015595 0.000001 0.000003 0.000004 8.095634 6.596019 -55.271199 6.260303 5.837320 -94.023216 6.464473 5.819456 -96.033539 0.000001 0.000001 -0.000002 4.131486 7.957491 -72.155737 6.063182 5.847269 -92.090833 6.267867 5.837204 -94.101032 -0.000002 -0.000001 0.000003 6.201341 8.172616 -94.422113 5.738830 5.834446 -89.159206 5.765821 5.876853 -89.165060 -0.000001 0.000001 -0.000001 1.801873 -7.887721 17.664071 13.898804 4.470259 67.093802 -262.391552 125.839296 261.212279 -1.954529 -10.246142 26.116319 4.871788 5.324678 -2.294175 38.267467 -16.587914 8.887111 -20.653217 9.199524 -16.346386 0.000001 0.000002 0.000002 1.677187 -5.809487 49.148491 5.481551 -4.582828 100.201040 5.063565 -4.639011 95.006019 0.000002 -0.000000 0.000000 4.176180 -9.714677 49.300705 4.983378 -4.645309 94.015532 5.145637 -4.631143 96.022071 -0.000000 0.000000 0.000001 9.738675 -8.872788 71.773438 4.826565 -4.653177 92.086557 4.989228 -4.645351 94.093212 -0.000001 0.000003 0.000003 4.821329 -6.910842 93.645568 4.588869 -4.655874 89.164281 4.590078 -4.657203 89.164479 0.000000 0.000000 0.000001 -72.885003 0.115679 50.563730 67.746727 5.896148 -13.746763 15.021586 -0.428648 -3.774099 -19.100462 -20.441354 0.067249 0.000000 -0.000002 0.000000 -51.245338 -3.963767 -4.431144 81.621355 -7.609526 7.033310 -38.980655 -2.941486 5.472681 0.000013 -3.159114 0.000049 -0.000000 0.000002 -0.000000 
-61.828445 78.096245 22.392448 12.531861 30.458658 -11.645106 19.846479 4.333433 2.748619 0.768112 0.946781 0.750131 0.767940 0.948392 0.735442 -5.704489 -2.867609 1.310202 -44.875483 -25.068416 -8.460269 -0.000001 0.000000 -0.000000 0.115599 6.716807 -4.454223 17.871859 -16.669263 -54.232559 -62.092656 -62.789239 -59.553772 -9.868050 -18.008065 -9.587281 26.444520 -4.920544 31.595670 23.413668 6.920824 -21.725510 -6.490386 -26.287571 21.652859 0.000003 0.000001 0.000006 2.153592 6.832310 -49.746061 6.890892 5.758272 -100.261419 6.360937 5.829598 -95.014871 0.000002 -0.000004 0.000004 8.096182 6.595774 -55.270721 6.261396 5.837271 -94.033899 6.465582 5.819340 -96.044221 -0.000001 -0.000001 -0.000001 4.152934 7.964522 -72.369392 6.060140 5.847373 -92.060998 6.264838 5.837416 -94.071246 0.000005 0.000001 0.000001 6.207282 8.172315 -94.722040 5.737814 5.834453 -89.149384 5.764827 5.876836 -89.155231 0.000001 0.000004 0.000003 1.801529 -7.946123 17.623737 13.968819 4.491918 67.095954 -262.564903 125.993330 261.410491 -1.875144 -10.393918 25.581452 4.865826 5.319643 -2.301476 38.257993 -16.573521 8.888291 -20.646178 9.191526 -16.323831 -0.000002 0.000005 0.000001 1.672527 -5.806954 49.076678 5.484845 -4.582248 100.242213 5.063516 -4.639010 95.005309 0.000001 0.000001 0.000000 4.176781 -9.714453 49.300227 4.984233 -4.645251 94.026194 5.146510 -4.631053 96.032740 -0.000001 -0.000001 0.000002 9.763656 -8.854790 71.986997 4.824166 -4.653250 92.056791 4.986803 -4.645531 94.063453 -0.000002 -0.000002 0.000002 4.821003 -6.911122 93.944648 4.588061 -4.655873 89.154493 4.589300 -4.657217 89.154691 -0.000003 0.000001 0.000001 -72.901273 0.155267 50.681257 67.803629 5.923937 -13.845366 15.132609 -0.433547 -3.708561 -19.211287 -20.899491 0.049822 -0.000000 -0.000003 -0.000000 -51.196820 -3.971236 -4.502012 81.732550 -7.564651 7.042973 -39.128952 -2.945328 5.449521 0.000057 -3.201526 0.000038 -0.000000 -0.000000 -0.000000 
-61.837784 78.064407 22.483185 12.567382 30.549800 -11.627394 19.842881 4.300102 2.798105 0.762631 0.933019 0.764109 0.762497 0.934266 0.749926 -5.767815 -2.856833 1.308028 -45.577046 -24.868562 -8.809392 -0.000001 0.000000 0.000000 0.110344 6.751644 -4.403644 17.931530 -16.722397 -54.255669 -62.078640 -62.907429 -59.564748 -9.800267 -18.071815 -9.359522 26.391132 -5.028751 31.615658 23.413175 6.920214 -21.725201 -6.484655 -26.299022 21.805522 0.000000 0.000003 0.000006 2.140139 6.822490 -49.577676 6.887643 5.758848 -100.229106 6.360861 5.829613 -95.014208 0.000002 -0.000004 0.000003 8.096174 6.595820 -55.262770 6.261959 5.837214 -94.039404 6.466126 5.819305 -96.049685 0.000001 -0.000002 0.000000 4.175785 7.971917 -72.598313 6.060295 5.847386 -92.062508 6.265004 5.837402 -94.072715 -0.000000 0.000002 -0.000001 6.286752 8.166314 -95.151686 5.730166 5.834285 -89.074232 5.757150 5.876701 -89.080078 0.000005 0.000001 0.000000 1.800503 -8.001468 17.570802 13.986329 4.520865 67.143020 -262.586076 126.186461 261.417130 -1.866740 -10.418011 25.181950 4.822902 5.384265 -2.291044 38.248072 -16.558559 8.889539 -20.686170 9.233327 -16.456800 -0.000003 0.000002 0.000002 1.661858 -5.799276 48.908509 5.482253 -4.582681 100.209920 5.063434 -4.639019 95.004605 -0.000000 0.000001 -0.000001 4.176403 -9.714173 49.292225 4.984682 -4.645221 94.031686 5.146958 -4.631021 96.038224 -0.000002 -0.000000 0.000001 9.790198 -8.835272 72.215747 4.824278 -4.653258 92.058287 4.986932 -4.645516 94.064949 0.000001 -0.000001 -0.000003 4.891559 -6.906931 94.373045 4.581964 -4.655779 89.079464 4.583210 -4.657109 89.079682 -0.000001 -0.000002 -0.000001 -72.972880 0.163144 50.889988 67.814496 6.002930 -13.987001 15.591497 -0.452042 -3.621907 -19.646595 -21.757158 0.021745 0.000000 -0.000002 0.000000 -51.169093 -4.069398 -4.687705 81.798305 -7.394766 7.124013 -39.264852 -2.915599 5.326583 0.000026 -3.070604 0.000037 -0.000000 -0.000000 0.000000 
